<mxfile host="app.diagrams.net" modified="2023-10-25T20:02:09.769Z" agent="Mozilla/5.0 (Macintosh; Intel Mac OS X 10.15; rv:109.0) Gecko/20100101 Firefox/118.0" etag="Y52uojkcy71Xv7Mgd_3d" version="22.0.8" type="github">
  <diagram name="Page-1" id="ua43d8ceatw9bpacGexY">
    <mxGraphModel dx="784" dy="542" grid="1" gridSize="10" guides="1" tooltips="1" connect="1" arrows="1" fold="1" page="1" pageScale="1" pageWidth="850" pageHeight="1100" math="0" shadow="0">
      <root>
        <mxCell id="0" />
        <mxCell id="1" parent="0" />
        <mxCell id="HZ88k6L1Ww788avmF6a1-8" value="" style="strokeWidth=1;shadow=0;dashed=0;align=center;html=1;shape=mxgraph.mockup.containers.browserWindow;rSize=0;strokeColor=#666666;strokeColor2=#008cff;strokeColor3=#c4c4c4;mainText=,;recursiveResize=0;" vertex="1" parent="1">
          <mxGeometry x="35" width="850" height="1670" as="geometry" />
        </mxCell>
        <UserObject label="https://oyindami01.github.io/alx_capstone_project/" link="https://oyindami01.github.io/alx_capstone_project/" id="HZ88k6L1Ww788avmF6a1-10">
          <mxCell style="strokeWidth=1;shadow=0;dashed=0;align=center;html=1;shape=mxgraph.mockup.containers.anchor;rSize=0;fontSize=17;fontColor=#666666;align=left;" vertex="1" parent="HZ88k6L1Ww788avmF6a1-8">
            <mxGeometry x="130" y="60" width="250" height="26" as="geometry" />
          </mxCell>
        </UserObject>
        <mxCell id="HZ88k6L1Ww788avmF6a1-11" value="Portfolio" style="text;html=1;strokeColor=none;fillColor=none;align=center;verticalAlign=middle;whiteSpace=wrap;rounded=0;" vertex="1" parent="HZ88k6L1Ww788avmF6a1-8">
          <mxGeometry x="60" y="10" width="100" height="30" as="geometry" />
        </mxCell>
        <mxCell id="HZ88k6L1Ww788avmF6a1-12" value="" style="verticalLabelPosition=bottom;shadow=0;dashed=0;align=center;html=1;verticalAlign=top;strokeWidth=1;shape=mxgraph.mockup.graphics.simpleIcon;strokeColor=#999999;" vertex="1" parent="HZ88k6L1Ww788avmF6a1-8">
          <mxGeometry x="10" y="130" width="130" height="50" as="geometry" />
        </mxCell>
        <mxCell id="HZ88k6L1Ww788avmF6a1-13" value="My logo" style="text;html=1;strokeColor=none;fillColor=none;align=center;verticalAlign=middle;whiteSpace=wrap;rounded=0;" vertex="1" parent="HZ88k6L1Ww788avmF6a1-8">
          <mxGeometry x="40" y="140" width="60" height="30" as="geometry" />
        </mxCell>
        <mxCell id="HZ88k6L1Ww788avmF6a1-25" value="" style="strokeWidth=1;shadow=0;dashed=0;align=center;html=1;shape=mxgraph.mockup.text.rrect;rSize=0;strokeColor=#666666;" vertex="1" parent="HZ88k6L1Ww788avmF6a1-8">
          <mxGeometry x="420" y="130" width="360" height="25" as="geometry" />
        </mxCell>
        <mxCell id="HZ88k6L1Ww788avmF6a1-26" value="About Me" style="strokeColor=inherit;fillColor=inherit;gradientColor=inherit;strokeWidth=1;shadow=0;dashed=0;align=center;html=1;shape=mxgraph.mockup.text.rrect;rSize=0;fontSize=17;fontColor=#0000ff;whiteSpace=wrap;" vertex="1" parent="HZ88k6L1Ww788avmF6a1-25">
          <mxGeometry x="90" width="90" height="25" as="geometry" />
        </mxCell>
        <mxCell id="HZ88k6L1Ww788avmF6a1-27" value="Skills" style="strokeColor=inherit;fillColor=inherit;gradientColor=inherit;strokeWidth=1;shadow=0;dashed=0;align=center;html=1;shape=mxgraph.mockup.text.rrect;rSize=0;fontSize=17;fontColor=#0000ff;whiteSpace=wrap;" vertex="1" parent="HZ88k6L1Ww788avmF6a1-25">
          <mxGeometry x="180" width="90" height="25" as="geometry" />
        </mxCell>
        <mxCell id="HZ88k6L1Ww788avmF6a1-28" value="Contact Me" style="strokeColor=inherit;fillColor=inherit;gradientColor=inherit;strokeWidth=1;shadow=0;dashed=0;align=center;html=1;shape=mxgraph.mockup.text.rrect;rSize=0;fontSize=17;fontColor=#0000ff;whiteSpace=wrap;" vertex="1" parent="HZ88k6L1Ww788avmF6a1-25">
          <mxGeometry x="270" width="90" height="25" as="geometry" />
        </mxCell>
        <mxCell id="HZ88k6L1Ww788avmF6a1-29" value="Home" style="strokeWidth=1;shadow=0;dashed=0;align=center;html=1;shape=mxgraph.mockup.text.rrect;rSize=0;fontSize=17;fontColor=#ffffff;fillColor=#008cff;strokeColor=#008cff;whiteSpace=wrap;" vertex="1" parent="HZ88k6L1Ww788avmF6a1-25">
          <mxGeometry width="90" height="25" as="geometry" />
        </mxCell>
        <mxCell id="HZ88k6L1Ww788avmF6a1-31" value="" style="verticalLabelPosition=bottom;shadow=0;dashed=0;align=center;html=1;verticalAlign=top;strokeWidth=1;shape=mxgraph.mockup.containers.userFemale;strokeColor=#666666;strokeColor2=#008cff;" vertex="1" parent="HZ88k6L1Ww788avmF6a1-8">
          <mxGeometry x="360" y="220" width="80" height="70" as="geometry" />
        </mxCell>
        <mxCell id="HZ88k6L1Ww788avmF6a1-32" value="A section that has an image of me, introduce me and briefly introduce what i do" style="text;html=1;strokeColor=none;fillColor=none;align=center;verticalAlign=middle;whiteSpace=wrap;rounded=0;" vertex="1" parent="HZ88k6L1Ww788avmF6a1-8">
          <mxGeometry x="190" y="300" width="450" height="30" as="geometry" />
        </mxCell>
        <mxCell id="HZ88k6L1Ww788avmF6a1-34" value="" style="verticalLabelPosition=bottom;shadow=0;dashed=0;align=center;html=1;verticalAlign=top;strokeWidth=1;shape=mxgraph.mockup.containers.userFemale;strokeColor=#666666;strokeColor2=#008cff;" vertex="1" parent="HZ88k6L1Ww788avmF6a1-8">
          <mxGeometry x="20" y="430" width="170" height="190" as="geometry" />
        </mxCell>
        <mxCell id="HZ88k6L1Ww788avmF6a1-35" value="&lt;font face=&quot;Times New Roman&quot; style=&quot;font-size: 36px;&quot;&gt;ABOUT ME SECTION&lt;/font&gt;" style="text;html=1;strokeColor=none;fillColor=none;align=center;verticalAlign=middle;whiteSpace=wrap;rounded=0;" vertex="1" parent="HZ88k6L1Ww788avmF6a1-8">
          <mxGeometry x="235" y="380" width="370" height="30" as="geometry" />
        </mxCell>
        <mxCell id="HZ88k6L1Ww788avmF6a1-36" value="Lorem ipsum dolor sit amet, consectetur adipisicing elit, sed do eiusmod tempor incididunt ut labore et dolore magna aliqua. Ut enim ad minim veniam, quis nostrud exercitation ullamco laboris nisi ut aliquip ex ea commodo consequat. Duis aute irure dolor in reprehenderit in voluptate velit esse cillum dolore eu fugiat nulla pariatur. Excepteur sint occaecat cupidatat non proident, sunt in culpa qui officia deserunt mollit anim id est laborum.&#xa;Sed ut perspiciatis unde omnis iste natus error sit voluptatem accusantium doloremque laudantium, totam rem aperiam, eaque ipsa quae ab illo inventore veritatis et quasi architecto beatae vitae dicta sunt explicabo. Nemo enim ipsam voluptatem quia voluptas sit aspernatur aut odit aut fugit, sed quia consequuntur magni dolores eos qui ratione voluptatem sequi nesciunt. Neque porro quisquam est, qui dolorem ipsum quia dolor sit amet, consectetur, adipisci velit, sed quia non numquam eius modi tempora incidunt ut labore et dolore magnam aliquam quaerat voluptatem. Ut enim ad minima veniam, quis nostrum exercitationem ullam corporis suscipit laboriosam, nisi ut aliquid ex ea commodi consequatur? Quis autem vel eum iure reprehenderit qui in ea voluptate velit esse quam nihil molestiae consequatur, vel illum qui dolorem eum fugiat quo voluptas nulla pariatur?" style="text;spacingTop=-5;whiteSpace=wrap;html=1;align=left;fontSize=12;fontFamily=Helvetica;fillColor=none;strokeColor=none;" vertex="1" parent="HZ88k6L1Ww788avmF6a1-8">
          <mxGeometry x="210" y="420" width="560" height="210" as="geometry" />
        </mxCell>
        <mxCell id="HZ88k6L1Ww788avmF6a1-37" value="An image of me" style="text;html=1;strokeColor=none;fillColor=none;align=center;verticalAlign=middle;whiteSpace=wrap;rounded=0;" vertex="1" parent="HZ88k6L1Ww788avmF6a1-8">
          <mxGeometry x="40" y="630" width="105" height="30" as="geometry" />
        </mxCell>
        <mxCell id="HZ88k6L1Ww788avmF6a1-38" value="A box that has detailed description about me" style="swimlane;whiteSpace=wrap;html=1;" vertex="1" parent="HZ88k6L1Ww788avmF6a1-8">
          <mxGeometry x="220" y="640" width="280" height="150" as="geometry" />
        </mxCell>
        <mxCell id="HZ88k6L1Ww788avmF6a1-39" value="Name:" style="text;html=1;strokeColor=none;fillColor=none;align=center;verticalAlign=middle;whiteSpace=wrap;rounded=0;" vertex="1" parent="HZ88k6L1Ww788avmF6a1-38">
          <mxGeometry y="30" width="60" height="20" as="geometry" />
        </mxCell>
        <mxCell id="HZ88k6L1Ww788avmF6a1-41" value="Address:" style="text;html=1;strokeColor=none;fillColor=none;align=center;verticalAlign=middle;whiteSpace=wrap;rounded=0;" vertex="1" parent="HZ88k6L1Ww788avmF6a1-38">
          <mxGeometry y="50" width="60" height="20" as="geometry" />
        </mxCell>
        <mxCell id="HZ88k6L1Ww788avmF6a1-42" value="Age:" style="text;html=1;strokeColor=none;fillColor=none;align=center;verticalAlign=middle;whiteSpace=wrap;rounded=0;" vertex="1" parent="HZ88k6L1Ww788avmF6a1-38">
          <mxGeometry y="65" width="60" height="20" as="geometry" />
        </mxCell>
        <mxCell id="HZ88k6L1Ww788avmF6a1-43" value="Phone:" style="text;html=1;strokeColor=none;fillColor=none;align=center;verticalAlign=middle;whiteSpace=wrap;rounded=0;" vertex="1" parent="HZ88k6L1Ww788avmF6a1-38">
          <mxGeometry y="85" width="60" height="20" as="geometry" />
        </mxCell>
        <mxCell id="HZ88k6L1Ww788avmF6a1-44" value="Experience" style="text;html=1;strokeColor=none;fillColor=none;align=center;verticalAlign=middle;whiteSpace=wrap;rounded=0;" vertex="1" parent="HZ88k6L1Ww788avmF6a1-38">
          <mxGeometry y="100" width="60" height="20" as="geometry" />
        </mxCell>
        <mxCell id="HZ88k6L1Ww788avmF6a1-46" value="my email, github and linked in links" style="text;html=1;strokeColor=none;fillColor=none;align=center;verticalAlign=middle;whiteSpace=wrap;rounded=0;" vertex="1" parent="HZ88k6L1Ww788avmF6a1-38">
          <mxGeometry x="-10" y="120" width="210" height="20" as="geometry" />
        </mxCell>
        <mxCell id="HZ88k6L1Ww788avmF6a1-49" value="" style="edgeStyle=orthogonalEdgeStyle;rounded=0;orthogonalLoop=1;jettySize=auto;html=1;" edge="1" parent="HZ88k6L1Ww788avmF6a1-8" source="HZ88k6L1Ww788avmF6a1-47" target="HZ88k6L1Ww788avmF6a1-48">
          <mxGeometry relative="1" as="geometry" />
        </mxCell>
        <mxCell id="HZ88k6L1Ww788avmF6a1-47" value="Contact me" style="strokeWidth=1;shadow=0;dashed=0;align=center;html=1;shape=mxgraph.mockup.buttons.button;strokeColor=#666666;fontColor=#ffffff;mainText=;buttonStyle=round;fontSize=17;fontStyle=1;fillColor=#008cff;whiteSpace=wrap;" vertex="1" parent="HZ88k6L1Ww788avmF6a1-8">
          <mxGeometry x="220" y="810" width="100" height="30" as="geometry" />
        </mxCell>
        <mxCell id="HZ88k6L1Ww788avmF6a1-48" value="A button that leads to the contact me section when clicked " style="text;html=1;strokeColor=none;fillColor=none;align=center;verticalAlign=middle;whiteSpace=wrap;rounded=0;" vertex="1" parent="HZ88k6L1Ww788avmF6a1-8">
          <mxGeometry x="380" y="810" width="180" height="30" as="geometry" />
        </mxCell>
        <mxCell id="HZ88k6L1Ww788avmF6a1-50" value="" style="rounded=1;whiteSpace=wrap;html=1;" vertex="1" parent="HZ88k6L1Ww788avmF6a1-8">
          <mxGeometry y="860" width="850" height="320" as="geometry" />
        </mxCell>
        <mxCell id="HZ88k6L1Ww788avmF6a1-51" value="&lt;font face=&quot;Times New Roman&quot; style=&quot;font-size: 36px;&quot;&gt;My Skills Section&lt;/font&gt;" style="text;html=1;strokeColor=none;fillColor=none;align=center;verticalAlign=middle;whiteSpace=wrap;rounded=0;" vertex="1" parent="HZ88k6L1Ww788avmF6a1-8">
          <mxGeometry x="230" y="873" width="300" height="30" as="geometry" />
        </mxCell>
        <mxCell id="HZ88k6L1Ww788avmF6a1-53" value="-Value 1&lt;br&gt;-Value 2&lt;br&gt;-Value 3&lt;br&gt;-Value 4" style="strokeWidth=1;shadow=0;dashed=0;align=center;html=1;shape=mxgraph.mockup.text.bulletedList;textColor=#666666;mainText=,,,,;textSize=17;bulletStyle=none;strokeColor=none;fillColor=none;align=left;verticalAlign=top;fontSize=17;fontColor=#666666;" vertex="1" parent="HZ88k6L1Ww788avmF6a1-8">
          <mxGeometry x="315" y="913" width="75" height="87" as="geometry" />
        </mxCell>
        <mxCell id="HZ88k6L1Ww788avmF6a1-55" value="" style="verticalLabelPosition=bottom;shadow=0;dashed=0;align=center;html=1;verticalAlign=top;strokeWidth=1;shape=mxgraph.mockup.misc.progressBar;fillColor=#cccccc;strokeColor=none;fillColor2=#99ddff;barPos=80;" vertex="1" parent="HZ88k6L1Ww788avmF6a1-8">
          <mxGeometry x="253" y="1040" width="200" height="20" as="geometry" />
        </mxCell>
        <mxCell id="HZ88k6L1Ww788avmF6a1-56" value="" style="verticalLabelPosition=bottom;shadow=0;dashed=0;align=center;html=1;verticalAlign=top;strokeWidth=1;shape=mxgraph.mockup.misc.progressBar;fillColor=#cccccc;strokeColor=none;fillColor2=#99ddff;barPos=80;direction=east;" vertex="1" parent="HZ88k6L1Ww788avmF6a1-8">
          <mxGeometry x="253" y="1070" width="200" height="20" as="geometry" />
        </mxCell>
        <mxCell id="HZ88k6L1Ww788avmF6a1-57" value="" style="verticalLabelPosition=bottom;shadow=0;dashed=0;align=center;html=1;verticalAlign=top;strokeWidth=1;shape=mxgraph.mockup.misc.progressBar;fillColor=#cccccc;strokeColor=none;fillColor2=#99ddff;barPos=80;" vertex="1" parent="HZ88k6L1Ww788avmF6a1-8">
          <mxGeometry x="253" y="1100" width="200" height="10" as="geometry" />
        </mxCell>
        <mxCell id="HZ88k6L1Ww788avmF6a1-58" value="" style="verticalLabelPosition=bottom;shadow=0;dashed=0;align=center;html=1;verticalAlign=top;strokeWidth=1;shape=mxgraph.mockup.misc.progressBar;fillColor=#cccccc;strokeColor=none;fillColor2=#99ddff;barPos=80;" vertex="1" parent="HZ88k6L1Ww788avmF6a1-8">
          <mxGeometry x="252.5" y="1120" width="200" height="20" as="geometry" />
        </mxCell>
        <mxCell id="HZ88k6L1Ww788avmF6a1-59" value="Progress bars that shows my skill level" style="text;html=1;strokeColor=none;fillColor=none;align=center;verticalAlign=middle;whiteSpace=wrap;rounded=0;" vertex="1" parent="HZ88k6L1Ww788avmF6a1-8">
          <mxGeometry x="185" y="1010" width="350" height="20" as="geometry" />
        </mxCell>
        <mxCell id="HZ88k6L1Ww788avmF6a1-60" value="" style="rounded=0;whiteSpace=wrap;html=1;" vertex="1" parent="HZ88k6L1Ww788avmF6a1-8">
          <mxGeometry y="1180" width="850" height="340" as="geometry" />
        </mxCell>
        <mxCell id="HZ88k6L1Ww788avmF6a1-61" value="&lt;font style=&quot;font-size: 36px;&quot; face=&quot;Times New Roman&quot;&gt;Contact Me Section&lt;/font&gt;" style="text;html=1;strokeColor=none;fillColor=none;align=center;verticalAlign=middle;whiteSpace=wrap;rounded=0;" vertex="1" parent="HZ88k6L1Ww788avmF6a1-8">
          <mxGeometry x="220" y="1190" width="310" height="30" as="geometry" />
        </mxCell>
        <mxCell id="HZ88k6L1Ww788avmF6a1-63" value="" style="strokeWidth=1;shadow=0;dashed=0;align=center;html=1;shape=mxgraph.mockup.forms.anchor;align=right;spacingRight=2;fontColor=#666666;" vertex="1" parent="HZ88k6L1Ww788avmF6a1-8">
          <mxGeometry x="130" y="1209" width="50" height="18" as="geometry" />
        </mxCell>
        <mxCell id="HZ88k6L1Ww788avmF6a1-66" value="Greeting" style="strokeWidth=1;shadow=0;dashed=0;align=center;html=1;shape=mxgraph.mockup.forms.rrect;fillColor=#ffffff;rSize=0;fontColor=#666666;align=left;spacingLeft=3;strokeColor=#999999;" vertex="1" parent="HZ88k6L1Ww788avmF6a1-8">
          <mxGeometry x="210" y="1261" width="350" height="18" as="geometry" />
        </mxCell>
        <mxCell id="HZ88k6L1Ww788avmF6a1-67" value="Email" style="strokeWidth=1;shadow=0;dashed=0;align=center;html=1;shape=mxgraph.mockup.forms.anchor;align=right;spacingRight=2;fontColor=#666666;" vertex="1" parent="HZ88k6L1Ww788avmF6a1-8">
          <mxGeometry x="135" y="1297" width="50" height="18" as="geometry" />
        </mxCell>
        <mxCell id="HZ88k6L1Ww788avmF6a1-68" value="fred@jgraph.com" style="strokeWidth=1;shadow=0;dashed=0;align=center;html=1;shape=mxgraph.mockup.forms.rrect;fillColor=#ffffff;rSize=0;fontColor=#666666;align=left;spacingLeft=3;strokeColor=#999999;" vertex="1" parent="HZ88k6L1Ww788avmF6a1-8">
          <mxGeometry x="210" y="1297" width="350" height="18" as="geometry" />
        </mxCell>
        <mxCell id="HZ88k6L1Ww788avmF6a1-69" value="Subject" style="strokeWidth=1;shadow=0;dashed=0;align=center;html=1;shape=mxgraph.mockup.forms.anchor;align=right;spacingRight=2;fontColor=#666666;" vertex="1" parent="HZ88k6L1Ww788avmF6a1-8">
          <mxGeometry x="140" y="1330" width="50" height="18" as="geometry" />
        </mxCell>
        <mxCell id="HZ88k6L1Ww788avmF6a1-70" value="" style="strokeWidth=1;shadow=0;dashed=0;align=center;html=1;shape=mxgraph.mockup.forms.rrect;fillColor=#ffffff;rSize=0;fontColor=#666666;align=left;spacingLeft=3;strokeColor=#999999;" vertex="1" parent="HZ88k6L1Ww788avmF6a1-8">
          <mxGeometry x="210" y="1330" width="350" height="18" as="geometry" />
        </mxCell>
        <mxCell id="HZ88k6L1Ww788avmF6a1-71" value="Message" style="strokeWidth=1;shadow=0;dashed=0;align=center;html=1;shape=mxgraph.mockup.forms.anchor;align=right;spacingRight=2;fontColor=#666666;" vertex="1" parent="HZ88k6L1Ww788avmF6a1-8">
          <mxGeometry x="145" y="1370" width="50" height="18" as="geometry" />
        </mxCell>
        <mxCell id="HZ88k6L1Ww788avmF6a1-72" value="" style="strokeWidth=1;shadow=0;dashed=0;align=center;html=1;shape=mxgraph.mockup.forms.rrect;fillColor=#ffffff;rSize=0;fontColor=#666666;align=left;spacingLeft=3;strokeColor=#999999;" vertex="1" parent="HZ88k6L1Ww788avmF6a1-8">
          <mxGeometry x="210" y="1370" width="350" height="20" as="geometry" />
        </mxCell>
        <mxCell id="HZ88k6L1Ww788avmF6a1-88" value="" style="edgeStyle=orthogonalEdgeStyle;rounded=0;orthogonalLoop=1;jettySize=auto;html=1;" edge="1" parent="HZ88k6L1Ww788avmF6a1-8" source="HZ88k6L1Ww788avmF6a1-74" target="HZ88k6L1Ww788avmF6a1-87">
          <mxGeometry relative="1" as="geometry" />
        </mxCell>
        <mxCell id="HZ88k6L1Ww788avmF6a1-74" value="Send Message" style="strokeWidth=1;shadow=0;dashed=0;align=center;html=1;shape=mxgraph.mockup.buttons.button;strokeColor=#666666;fontColor=#ffffff;mainText=;buttonStyle=round;fontSize=17;fontStyle=1;fillColor=#008cff;whiteSpace=wrap;" vertex="1" parent="HZ88k6L1Ww788avmF6a1-8">
          <mxGeometry x="270" y="1410" width="150" height="30" as="geometry" />
        </mxCell>
        <mxCell id="HZ88k6L1Ww788avmF6a1-79" value="Name" style="text;html=1;strokeColor=none;fillColor=none;align=center;verticalAlign=middle;whiteSpace=wrap;rounded=0;" vertex="1" parent="HZ88k6L1Ww788avmF6a1-8">
          <mxGeometry x="140" y="1260.25" width="55" height="19.5" as="geometry" />
        </mxCell>
        <mxCell id="HZ88k6L1Ww788avmF6a1-80" value="A form to fill to send me a message" style="text;html=1;strokeColor=none;fillColor=none;align=center;verticalAlign=middle;whiteSpace=wrap;rounded=0;" vertex="1" parent="HZ88k6L1Ww788avmF6a1-8">
          <mxGeometry x="190" y="1220" width="360" height="30" as="geometry" />
        </mxCell>
        <mxCell id="HZ88k6L1Ww788avmF6a1-87" value="A button that sends an email to me through email.js" style="text;html=1;strokeColor=none;fillColor=none;align=center;verticalAlign=middle;whiteSpace=wrap;rounded=0;" vertex="1" parent="HZ88k6L1Ww788avmF6a1-8">
          <mxGeometry x="475" y="1410" width="295" height="30" as="geometry" />
        </mxCell>
        <mxCell id="HZ88k6L1Ww788avmF6a1-92" value="&lt;font style=&quot;font-size: 36px;&quot; face=&quot;Times New Roman&quot;&gt;FOOTER SECTION&lt;br&gt;&lt;/font&gt;" style="text;html=1;strokeColor=none;fillColor=none;align=center;verticalAlign=middle;whiteSpace=wrap;rounded=0;" vertex="1" parent="HZ88k6L1Ww788avmF6a1-8">
          <mxGeometry x="230" y="1530" width="390" height="30" as="geometry" />
        </mxCell>
        <mxCell id="HZ88k6L1Ww788avmF6a1-95" value="" style="edgeStyle=orthogonalEdgeStyle;rounded=0;orthogonalLoop=1;jettySize=auto;html=1;" edge="1" parent="HZ88k6L1Ww788avmF6a1-8" source="HZ88k6L1Ww788avmF6a1-93" target="HZ88k6L1Ww788avmF6a1-94">
          <mxGeometry relative="1" as="geometry" />
        </mxCell>
        <mxCell id="HZ88k6L1Ww788avmF6a1-93" value="" style="verticalLabelPosition=bottom;shadow=0;dashed=0;align=center;html=1;verticalAlign=top;strokeWidth=1;shape=mxgraph.mockup.graphics.simpleIcon;strokeColor=#999999;" vertex="1" parent="HZ88k6L1Ww788avmF6a1-8">
          <mxGeometry y="1610" width="90" height="30" as="geometry" />
        </mxCell>
        <mxCell id="HZ88k6L1Ww788avmF6a1-94" value="Logo that leads back to the homepage when clicked" style="text;html=1;strokeColor=none;fillColor=none;align=center;verticalAlign=middle;whiteSpace=wrap;rounded=0;" vertex="1" parent="HZ88k6L1Ww788avmF6a1-8">
          <mxGeometry x="113" y="1640" width="140" as="geometry" />
        </mxCell>
        <mxCell id="HZ88k6L1Ww788avmF6a1-102" value="" style="edgeStyle=orthogonalEdgeStyle;rounded=0;orthogonalLoop=1;jettySize=auto;html=1;" edge="1" parent="HZ88k6L1Ww788avmF6a1-8" source="HZ88k6L1Ww788avmF6a1-96" target="HZ88k6L1Ww788avmF6a1-98">
          <mxGeometry relative="1" as="geometry" />
        </mxCell>
        <mxCell id="HZ88k6L1Ww788avmF6a1-96" value="" style="strokeColor=#999999;verticalLabelPosition=bottom;shadow=0;dashed=0;verticalAlign=top;strokeWidth=2;html=1;shape=mxgraph.mockup.misc.copyrightIcon;" vertex="1" parent="HZ88k6L1Ww788avmF6a1-8">
          <mxGeometry x="362.5" y="1610" width="25" height="25" as="geometry" />
        </mxCell>
        <mxCell id="HZ88k6L1Ww788avmF6a1-98" value="Copyright section and logos that leads to my social media profile " style="text;html=1;strokeColor=none;fillColor=none;align=center;verticalAlign=middle;whiteSpace=wrap;rounded=0;" vertex="1" parent="HZ88k6L1Ww788avmF6a1-8">
          <mxGeometry x="465" y="1607.5" width="350" height="30" as="geometry" />
        </mxCell>
        <mxCell id="HZ88k6L1Ww788avmF6a1-30" value="" style="verticalLabelPosition=bottom;shadow=0;dashed=0;align=center;html=1;verticalAlign=top;strokeWidth=1;shape=mxgraph.mockup.graphics.simpleIcon;strokeColor=#999999;" vertex="1" parent="1">
          <mxGeometry x="40" y="190" width="840" height="180" as="geometry" />
        </mxCell>
      </root>
    </mxGraphModel>
  </diagram>
</mxfile>
